<svg width="30" height="48" viewBox="0 0 30 48" fill="none" xmlns="http://www.w3.org/2000/svg">
<path fill-rule="evenodd" clip-rule="evenodd" d="M21.2887 4.93824C21.376 5.07758 21.4453 5.2431 21.4926 5.42534C21.5398 5.60757 21.5641 5.80294 21.5641 6.00024C21.5641 6.19754 21.5398 6.39291 21.4926 6.57514C21.4453 6.75738 21.376 6.9229 21.2887 7.06224L10.7006 24.0002L21.2887 40.9382C21.4648 41.2199 21.5637 41.6019 21.5637 42.0002C21.5637 42.3986 21.4648 42.7806 21.2887 43.0622C21.1127 43.3439 20.8739 43.5021 20.625 43.5021C20.376 43.5021 20.1373 43.3439 19.9612 43.0622L8.71122 25.0622C8.62391 24.9229 8.55464 24.7574 8.50738 24.5751C8.46012 24.3929 8.43579 24.1975 8.43579 24.0002C8.43579 23.8029 8.46012 23.6076 8.50738 23.4253C8.55464 23.2431 8.62391 23.0776 8.71122 22.9382L19.9612 4.93824C20.0483 4.79855 20.1518 4.68772 20.2657 4.6121C20.3796 4.53648 20.5017 4.49756 20.625 4.49756C20.7483 4.49756 20.8704 4.53648 20.9843 4.6121C21.0982 4.68772 21.2016 4.79855 21.2887 4.93824Z" fill="#21272A"/>
</svg>
