<svg width="31" height="48" viewBox="0 0 31 48" fill="none" xmlns="http://www.w3.org/2000/svg">
<path fill-rule="evenodd" clip-rule="evenodd" d="M9.0014 4.93824C9.09139 4.79855 9.19829 4.68772 9.31599 4.6121C9.43368 4.53648 9.55985 4.49756 9.68728 4.49756C9.8147 4.49756 9.94087 4.53648 10.0586 4.6121C10.1763 4.68772 10.2832 4.79855 10.3732 4.93824L21.9982 22.9382C22.0884 23.0776 22.1599 23.2431 22.2088 23.4253C22.2576 23.6076 22.2828 23.8029 22.2828 24.0002C22.2828 24.1975 22.2576 24.3929 22.2088 24.5751C22.1599 24.7574 22.0884 24.9229 21.9982 25.0622L10.3732 43.0622C10.1912 43.3439 9.94453 43.5021 9.68728 43.5021C9.43003 43.5021 9.18331 43.3439 9.0014 43.0622C8.8195 42.7806 8.7173 42.3986 8.7173 42.0002C8.7173 41.6019 8.8195 41.2199 9.0014 40.9382L19.9425 24.0002L9.0014 7.06224C8.91119 6.9229 8.83961 6.75738 8.79077 6.57514C8.74193 6.39291 8.7168 6.19754 8.7168 6.00024C8.7168 5.80294 8.74193 5.60757 8.79077 5.42534C8.83961 5.2431 8.91119 5.07758 9.0014 4.93824Z" fill="#21272A"/>
</svg>
