<svg width="30" height="25" viewBox="0 0 30 25" fill="none" xmlns="http://www.w3.org/2000/svg">
<path d="M14.1211 3.69165H15.8789C16.0352 3.69165 16.1133 3.75642 16.1133 3.88595V20.984C16.1133 21.1135 16.0352 21.1783 15.8789 21.1783H14.1211C13.9648 21.1783 13.8867 21.1135 13.8867 20.984V3.88595C13.8867 3.75642 13.9648 3.69165 14.1211 3.69165Z" fill="black"/>
<path d="M5.15625 11.512H24.8438C25 11.512 25.0781 11.5767 25.0781 11.7063V13.1635C25.0781 13.293 25 13.3578 24.8438 13.3578H5.15625C5 13.3578 4.92188 13.293 4.92188 13.1635V11.7063C4.92188 11.5767 5 11.512 5.15625 11.512Z" fill="black"/>
</svg>
