<svg width="41" height="41" viewBox="0 0 41 41" fill="none" xmlns="http://www.w3.org/2000/svg">
<path d="M27.9737 5.55182C29.9542 5.55773 31.852 6.34712 33.2524 7.74758C34.6529 9.14804 35.4423 11.0458 35.4482 13.0263V27.9737C35.4423 29.9542 34.6529 31.852 33.2524 33.2524C31.852 34.6529 29.9542 35.4423 27.9737 35.4482H13.0263C11.0458 35.4423 9.14804 34.6529 7.74758 33.2524C6.34712 31.852 5.55773 29.9542 5.55182 27.9737V13.0263C5.55773 11.0458 6.34712 9.14804 7.74758 7.74758C9.14804 6.34712 11.0458 5.55773 13.0263 5.55182H27.9737ZM27.9737 2.5625H13.0263C7.27109 2.5625 2.5625 7.27109 2.5625 13.0263V27.9737C2.5625 33.7289 7.27109 38.4375 13.0263 38.4375H27.9737C33.7289 38.4375 38.4375 33.7289 38.4375 27.9737V13.0263C38.4375 7.27109 33.7289 2.5625 27.9737 2.5625Z" fill="#373737"/>
<path d="M30.2158 13.0264C29.7724 13.0264 29.3389 12.8949 28.9701 12.6485C28.6014 12.4021 28.314 12.0519 28.1443 11.6422C27.9746 11.2325 27.9302 10.7817 28.0167 10.3468C28.1032 9.91181 28.3168 9.51229 28.6304 9.19871C28.9439 8.88514 29.3435 8.67159 29.7784 8.58508C30.2133 8.49856 30.6642 8.54296 31.0739 8.71267C31.4836 8.88238 31.8338 9.16976 32.0801 9.53849C32.3265 9.90721 32.458 10.3407 32.458 10.7842C32.4586 11.0788 32.4011 11.3707 32.2886 11.643C32.1762 11.9153 32.011 12.1627 31.8027 12.3711C31.5944 12.5794 31.3469 12.7445 31.0746 12.857C30.8023 12.9694 30.5104 13.027 30.2158 13.0264Z" fill="#373737"/>
<path d="M20.5 14.5206C21.6826 14.5206 22.8387 14.8713 23.822 15.5283C24.8053 16.1853 25.5717 17.1192 26.0243 18.2118C26.4768 19.3044 26.5953 20.5066 26.3645 21.6665C26.1338 22.8264 25.5643 23.8919 24.7281 24.7281C23.8919 25.5643 22.8264 26.1338 21.6665 26.3645C20.5066 26.5953 19.3044 26.4768 18.2118 26.0243C17.1192 25.5717 16.1853 24.8053 15.5283 23.822C14.8713 22.8387 14.5206 21.6826 14.5206 20.5C14.5223 18.9147 15.1528 17.3948 16.2738 16.2738C17.3948 15.1528 18.9147 14.5223 20.5 14.5206ZM20.5 11.5313C18.7262 11.5313 16.9921 12.0573 15.5172 13.0428C14.0423 14.0283 12.8928 15.429 12.214 17.0678C11.5351 18.7066 11.3575 20.51 11.7036 22.2497C12.0496 23.9895 12.9038 25.5876 14.1581 26.8419C15.4124 28.0962 17.0105 28.9504 18.7503 29.2964C20.4901 29.6425 22.2934 29.4649 23.9322 28.786C25.571 28.1072 26.9717 26.9577 27.9572 25.4828C28.9427 24.0079 29.4688 22.2739 29.4688 20.5C29.4688 18.1213 28.5238 15.8401 26.8419 14.1581C25.1599 12.4762 22.8787 11.5313 20.5 11.5313Z" fill="#373737"/>
</svg>
